<svg class="svg-inline--fa fa-orcid fa-w-16" aria-hidden="true" data-icon="orcid" data-prefix="fab" focusable="false" role="img" version="1.1" viewBox="0 0 512 512" xmlns="http://www.w3.org/2000/svg"><path d="m219 145.26v207.74h81c68.38 0 110-50.611 110.04-103.89 0-49.02-33.709-103.85-110.44-103.85zm29.83 26.93h45.92c58.13 0 84.67 35.26 84.67 76.9 0 25.57-15.499 76.91-83.119 76.91h-47.471z" fill="#fff"/><path d="m256-8c-137 0-248 111-248 248s111 248 248 248 248-111 248-248-111-248-248-248z" fill="none"/><path d="m175.21 352.76h-29.84v-207.5h29.84z" fill="#fff"/><path d="m160.29 121.62a19.57 19.57 0 1 1 19.57-19.57 19.64 19.64 0 0 1-19.57 19.57z" fill="#fff"/></svg>
