<svg class="svg-inline--fa fa-orcid fa-w-16" aria-hidden="true" data-icon="orcid" data-prefix="fab" focusable="false" role="img" version="1.1" viewBox="0 0 512 512" xmlns="http://www.w3.org/2000/svg"><path d="m233.47 163.86v154.43h60.213c50.832 0 81.771-37.623 81.8-77.229 0-36.44-25.058-77.199-82.098-77.199zm22.175 20.019h34.136c43.212 0 62.941 26.211 62.941 57.165 0 19.008-11.521 57.173-61.788 57.173h-35.288z" fill="#fff" stroke-width=".74337"/><path d="m256-8c-137 0-248 111-248 248s111 248 248 248 248-111 248-248-111-248-248-248z" fill="none"/><path d="m200.92 318.11h-22.182v-154.25h22.182z" fill="#fff" stroke-width=".74337"/><path d="m189.83 146.29a14.548 14.548 0 1 1 14.548-14.548 14.6 14.6 0 0 1-14.548 14.548z" fill="#fff" stroke-width=".74337"/></svg>
